<?xml version="1.0" encoding="UTF-8" standalone="no"?>
<!-- Created with Inkscape (http://www.inkscape.org/) -->

<svg
   width="127.99999"
   height="127.99999"
   viewBox="0 0 33.866664 33.866664"
   version="1.1"
   id="svg1"
   xmlns="http://www.w3.org/2000/svg"
   xmlnsSvg="http://www.w3.org/2000/svg">
  <defs
     id="defs1" />
  <g
     id="layer1">
    <path
       d="M 6.9236604,26.070409 V 7.1310203 h 6.5241416 q 2.209164,0 3.371882,0.2713009 1.627806,0.3746537 2.777605,1.3565046 1.498615,1.2660712 2.235003,3.2426922 0.749307,1.963702 0.749307,4.495844 0,2.157488 -0.503844,3.824051 -0.503845,1.666563 -1.29191,2.764685 -0.788064,1.085204 -1.731158,1.71824 -0.930174,0.620116 -2.260841,0.943093 -1.317747,0.322978 -3.035986,0.322978 z M 9.4299642,23.835406 H 13.47364 q 1.873268,0 2.932633,-0.348816 1.072285,-0.348815 1.70532,-0.981851 0.891418,-0.891417 1.382343,-2.390032 0.503845,-1.511533 0.503845,-3.656103 0,-2.971391 -0.981851,-4.560439 Q 18.046998,10.296198 16.651736,9.7535959 15.644047,9.3660231 13.409044,9.3660231 H 9.4299642 Z"
       id="text2"
       style="font-size:26.4583px;font-family:Arial;-inkscape-font-specification:Arial;fill:#000000;fill-opacity:1;stroke-width:0.529167;stroke-miterlimit:10.7"
       aria-label="D" />
    <path
       id="text1-5"
       style="font-size:26.4583px;font-family:Arial;-inkscape-font-specification:Arial;white-space:pre;inline-size:59.1664;fill:#f0e68c;fill-opacity:1;stroke-width:0.526846;stroke-miterlimit:10.7"
       d="m 20.855648,7.1631138 c -1.309732,0 -2.500048,0.2077733 -3.570841,0.6232177 -1.070794,0.4154444 -1.884707,1.0259673 -2.442229,1.8319294 -0.55752,0.7976531 -0.836641,1.6574011 -0.836641,2.5796881 0,0.839197 0.225634,1.599668 0.676961,2.280997 0.460176,0.67302 1.15491,1.237999 2.084111,1.694987 0.639302,0.318649 1.729432,0.658172 3.220475,1.016476 0.009,-0.222831 0.01499,-0.449014 0.01499,-0.683163 0,-0.66341 -0.04027,-1.270326 -0.113688,-1.830379 -1.368792,-0.347724 -2.255044,-0.688222 -2.643766,-1.02061 -0.504424,-0.423752 -0.756543,-0.963653 -0.756543,-1.620056 0,-0.756108 0.353987,-1.399896 1.06195,-1.931665 0.716812,-0.5400781 1.853644,-0.8102861 3.411162,-0.8102861 1.495571,0 2.624262,0.294769 3.385323,0.8847001 0.769909,0.589932 1.22118,1.462477 1.353922,2.617412 l 2.4691,-0.174667 C 28.125682,11.549849 27.806835,10.590308 27.213916,9.7428009 26.620997,8.8952949 25.771426,8.2556007 24.665234,7.8235386 23.567892,7.3831675 22.298122,7.1631138 20.855648,7.1631138 Z m 1.680001,8.1142332 c 0.03328,0.410479 0.05064,0.832931 0.05064,1.268657 0,0.431305 -0.01682,0.846107 -0.04703,1.247985 0.667244,0.167344 1.162586,0.306511 1.449007,0.411345 0.814158,0.290811 1.398367,0.652625 1.752348,1.084688 0.353982,0.423754 0.530717,0.922203 0.530717,1.495516 0,0.565004 -0.185392,1.088531 -0.557072,1.570447 -0.362831,0.473607 -0.920556,0.847186 -1.672766,1.121378 -0.752211,0.274194 -1.61961,0.411345 -2.601908,0.411345 -1.106193,0 -2.101428,-0.178603 -2.986381,-0.535885 -0.884954,-0.365592 -1.539961,-0.838963 -1.964738,-1.420585 -0.415929,-0.589931 -0.68129,-1.342215 -0.796334,-2.256193 l -2.429309,0.199471 c 0.0354,1.221406 0.389386,2.318097 1.061951,3.290238 0.681414,0.963831 1.615025,1.686945 2.800862,2.16886 1.194687,0.481915 2.672263,0.722953 4.433321,0.722953 1.389377,0 2.637249,-0.236944 3.743441,-0.71055 1.115041,-0.481916 1.969199,-1.15078 2.562117,-2.006596 0.592919,-0.864125 0.889352,-1.782214 0.889352,-2.754354 0,-0.980449 -0.269949,-1.844807 -0.80977,-2.592607 -0.539822,-0.756108 -1.37615,-1.378911 -2.508891,-1.869136 -0.588724,-0.251254 -1.557268,-0.533993 -2.899564,-0.846977 z" />
  </g>
</svg>
