<?xml version="1.0" encoding="UTF-8" standalone="no" ?>
<!DOCTYPE svg PUBLIC "-//W3C//DTD SVG 1.1//EN" "http://www.w3.org/Graphics/SVG/1.1/DTD/svg11.dtd">
<svg xmlns="http://www.w3.org/2000/svg" xmlns:xlink="http://www.w3.org/1999/xlink" version="1.1" width="32" height="32" viewBox="0 0 32 32" xml:space="preserve">

  <defs
     id="defs1" />
  <g
     id="layer1">
    <path
       style="fill:none;stroke:#000000;stroke-linecap:butt;stroke-linejoin:miter;stroke-opacity:1"
       d="m 2.0050804,16.329398 c 0,0 1.2667231,-2.00508 3.6545301,-4.010161 1.3187267,-1.107356 2.9793929,-2.214712 4.9574655,-2.984316 m 3.251056,-0.8842611 c 0.870008,-0.1644482 1.211466,-0.1415834 2.172512,-0.1415834 9.917019,0 14.008467,8.0203215 14.008467,8.0203215"
       id="path1" />
    <path
       style="fill:none;stroke:#000000;stroke-opacity:1"
       d="m 30.054229,15.857517 c 0,0 -2.189805,3.447778 -6.218115,5.822246 m -2.522766,1.21761 c -1.572737,0.597954 -3.341959,0.980466 -5.294683,0.980466 -8.1287034,0 -14.0084668,-8.020322 -14.0084668,-8.020322"
       id="path1-8" />
    <path
       id="path2"
       style="fill:#000000;stroke:none;stroke-opacity:1;fill-opacity:1"
       d="M 15.935547 11.732422 L 20.236328 16.988281 A 4.3895006 4.3895006 0 0 0 20.322266 16.121094 A 4.3895006 4.3895006 0 0 0 15.935547 11.732422 z M 14.804688 14.462891 A 2.5541868 2.5541868 0 0 1 13.060547 15.152344 A 2.5541868 2.5541868 0 0 1 11.755859 14.789062 A 4.3895006 4.3895006 0 0 0 11.542969 16.121094 A 4.3895006 4.3895006 0 0 0 15.931641 20.511719 A 4.3895006 4.3895006 0 0 0 18.701172 19.527344 L 14.804688 14.462891 z " />
    <path
       style="fill:#000000;fill-opacity:1;stroke:#000000;stroke-linecap:round;stroke-opacity:1"
       d="M 26.171932,29.045863 5.2880331,2.6056974"
       id="path3" />
  </g>
</svg>
