<?xml version="1.0" encoding="UTF-8" standalone="no" ?>
<!DOCTYPE svg PUBLIC "-//W3C//DTD SVG 1.1//EN" "http://www.w3.org/Graphics/SVG/1.1/DTD/svg11.dtd">
<svg xmlns="http://www.w3.org/2000/svg" xmlns:xlink="http://www.w3.org/1999/xlink" version="1.1" width="32" height="32" viewBox="0 0 32 32" xml:space="preserve">
  <defs
     id="defs1" />
  <g
     id="layer1">
    <path
       style="fill:none;stroke:#000000;stroke-opacity:1"
       d="m 2.0050804,16.329398 c 0,0 5.0668925,-8.0203215 14.0355636,-8.0203215 9.917019,0 14.008467,8.0203215 14.008467,8.0203215"
       id="path1" />
    <path
       style="fill:none;stroke:#000000;stroke-opacity:1"
       d="m 30.054229,15.857517 c 0,0 -5.093989,8.020322 -14.035564,8.020322 -8.1287034,0 -14.0084668,-8.020322 -14.0084668,-8.020322"
       id="path1-8" />
    <path
       id="path2"
       style="fill:#000000;stroke:#000000;stroke-opacity:1;fill-opacity:1"
       d="M 15.931641 11.732422 A 4.3895006 4.3895006 0 0 0 15.476562 11.765625 A 2.5541868 2.5541868 0 0 1 15.615234 12.597656 A 2.5541868 2.5541868 0 0 1 13.060547 15.152344 A 2.5541868 2.5541868 0 0 1 11.755859 14.789062 A 4.3895006 4.3895006 0 0 0 11.542969 16.121094 A 4.3895006 4.3895006 0 0 0 15.931641 20.511719 A 4.3895006 4.3895006 0 0 0 20.322266 16.121094 A 4.3895006 4.3895006 0 0 0 15.931641 11.732422 z " />
  </g>
</svg>
