<?xml version="1.0" encoding="UTF-8" standalone="no" ?>
<!DOCTYPE svg PUBLIC "-//W3C//DTD SVG 1.1//EN" "http://www.w3.org/Graphics/SVG/1.1/DTD/svg11.dtd">
<svg xmlns="http://www.w3.org/2000/svg" xmlns:xlink="http://www.w3.org/1999/xlink" version="1.1" width="500" height="500" viewBox="0 0 500 500" xml:space="preserve">
<desc>Created with Fabric.js 5.3.0</desc>
<defs>
</defs>
<g transform="matrix(5.1277775231 0 0 0.6409721314 250 100)" id="vv7Y2VolEfKRMavxrELg8"  >
<path style="stroke: rgb(27,193,172); stroke-width: 0; stroke-dasharray: none; stroke-linecap: butt; stroke-dashoffset: 0; stroke-linejoin: miter; stroke-miterlimit: 4; fill: rgb(255,255,255); fill-rule: nonzero; opacity: 1;"  transform=" translate(0, 0)" d="M -39.00325 -39.0031 C -39.00325 -39.003190000000004 -39.00324 -39.003260000000004 -39.00323 -39.003260000000004 L 39.00323999999999 -39.003260000000004 L 39.00323999999999 -39.003260000000004 C 39.003249999999994 -39.003260000000004 39.00325999999999 -39.003190000000004 39.00325999999999 -39.0031 L 39.00325999999999 39.00326 L -39.00324000000001 39.00326 z" stroke-linecap="round" />
</g>
<g transform="matrix(5.1277775231 0 0 0.6409721315 250.000036961 400)" id="eH7erXsZs1VDc8cTHYbOG"  >
<path style="stroke: rgb(27,193,172); stroke-width: 0; stroke-dasharray: none; stroke-linecap: butt; stroke-dashoffset: 0; stroke-linejoin: miter; stroke-miterlimit: 4; fill: rgb(255,255,255); fill-rule: nonzero; opacity: 1;"  transform=" translate(0, 0)" d="M -39.00325 -37.44313 C -39.00325 -38.30477 -38.91594 -39.00326 -38.80823 -39.00326 L 38.808240000000005 -39.00326 L 38.808240000000005 -39.00326 C 38.915940000000006 -39.00326 39.003260000000004 -38.30477 39.003260000000004 -37.44313 L 39.003260000000004 39.00325000000001 L -39.00324 39.00325000000001 z" stroke-linecap="round" />
</g>
<g transform="matrix(5.1277762412 0 0 0.6409721316 250.0000739221 250)" id="gkwjNhU0gIH_0zQCzUFO-"  >
<path style="stroke: rgb(27,193,172); stroke-width: 0; stroke-dasharray: none; stroke-linecap: butt; stroke-dashoffset: 0; stroke-linejoin: miter; stroke-miterlimit: 4; fill: rgb(255,255,255); fill-rule: nonzero; opacity: 1;"  transform=" translate(0, 0)" d="M -39.00325 -39.0031 C -39.00325 -39.003190000000004 -39.00324 -39.003260000000004 -39.00323 -39.003260000000004 L 39.00323999999999 -39.003260000000004 L 39.00323999999999 -39.003260000000004 C 39.003249999999994 -39.003260000000004 39.00325999999999 -39.003190000000004 39.00325999999999 -39.0031 L 39.00325999999999 39.00326 L -39.00324000000001 39.00326 z" stroke-linecap="round" />
</g>
</svg>