<?xml version="1.0" encoding="UTF-8" standalone="no"?>
<!-- Created with Inkscape (http://www.inkscape.org/) -->

<svg
   width="32"
   height="32"
   viewBox="0 0 32 32"
   version="1.1"
   id="svg1"
   xml:space="preserve"
   inkscape:version="1.3.2 (091e20e, 2023-11-25, custom)"
   sodipodi:docname="SaveIconInslscape.svg"
   inkscape:export-filename="SaveIcon.svg"
   inkscape:export-xdpi="113.16025"
   inkscape:export-ydpi="113.16025"
   xmlns:inkscape="http://www.inkscape.org/namespaces/inkscape"
   xmlns:sodipodi="http://sodipodi.sourceforge.net/DTD/sodipodi-0.dtd"
   xmlns="http://www.w3.org/2000/svg"
   xmlns:svg="http://www.w3.org/2000/svg"><sodipodi:namedview
     id="namedview1"
     pagecolor="#505050"
     bordercolor="#ffffff"
     borderopacity="1"
     inkscape:showpageshadow="0"
     inkscape:pageopacity="0"
     inkscape:pagecheckerboard="1"
     inkscape:deskcolor="#505050"
     inkscape:document-units="mm"
     inkscape:zoom="18.746663"
     inkscape:cx="12.215508"
     inkscape:cy="13.602421"
     inkscape:window-width="1858"
     inkscape:window-height="1177"
     inkscape:window-x="54"
     inkscape:window-y="-8"
     inkscape:window-maximized="1"
     inkscape:current-layer="layer1" /><defs
     id="defs1" /><g
     inkscape:label="Слой 1"
     inkscape:groupmode="layer"
     id="layer1"><path
       style="fill:none;stroke:#000000;stroke-width:1;stroke-miterlimit:10.7;stroke-dasharray:none;stroke-opacity:1"
       d="M 23.819591,1.8103792 30.16167,7.5759053 V 28.21649 c 0,0 -0.11531,1.672002 -1.556693,1.729658 -1.441381,0.05765 -24.8494182,0 -24.8494182,0 0,0 -1.7873133,0 -1.8449686,-1.499038 -0.057656,-1.499036 0.172966,-25.4259704 0.172966,-25.4259704 0,0 0,-1.0954498 1.2107604,-1.1531051 1.2107606,-0.057656 20.5252744,-0.057656 20.5252744,-0.057655 z"
       id="path1" /><path
       style="fill:none;stroke:#000000;stroke-width:1;stroke-miterlimit:10.7;stroke-dasharray:none;stroke-opacity:1"
       d="m 7.6761164,1.6950688 -0.057655,8.9942202 c 0,0 -0.057657,1.729659 1.556692,1.729659 1.6143476,0 13.4336766,-0.11531 13.4336766,-0.11531 0,0 1.268415,-0.345932 1.268415,-1.441381 0,-1.09545 -0.115309,-9.0518761 -0.115309,-9.0518761"
       id="path2" /><path
       style="fill:none;stroke:#000000;stroke-width:1;stroke-miterlimit:10.7;stroke-dasharray:none;stroke-opacity:1"
       d="M 7.6761164,29.715527 7.6184612,18.24213 c 0,0 0.4035854,-1.037795 1.3260709,-1.095451 0.9224843,-0.05765 14.4714719,0.05765 14.4714719,0.05765 0,0 1.153104,0.576552 1.09545,1.441382 -0.05765,0.864828 -0.05765,11.06981 -0.05765,11.06981"
       id="path3" /><path
       style="fill:none;stroke:#000000;stroke-width:1;stroke-linejoin:round;stroke-miterlimit:10.7;stroke-dasharray:none;stroke-opacity:1"
       d="m 18.803583,4.5201765 0.03726,4.8465399 2.095974,-0.0035 V 4.4927979 Z"
       id="path4"
       sodipodi:nodetypes="ccccc" /></g></svg>
