<?xml version="1.0" encoding="UTF-8" standalone="no"?>
<!-- Created with Inkscape (http://www.inkscape.org/) -->

<svg
   width="32"
   height="32"
   viewBox="0 0 32 32"
   version="1.1"
   id="svg1"
   inkscape:version="1.3 (0e150ed6c4, 2023-07-21)"
   sodipodi:docname="Create_B.svg"
   inkscape:export-filename="..\Create_B_E.svg"
   inkscape:export-xdpi="96"
   inkscape:export-ydpi="96"
   xmlns:inkscape="http://www.inkscape.org/namespaces/inkscape"
   xmlns:sodipodi="http://sodipodi.sourceforge.net/DTD/sodipodi-0.dtd"
   xmlns="http://www.w3.org/2000/svg"
   xmlns:svg="http://www.w3.org/2000/svg">
  <sodipodi:namedview
     id="namedview1"
     pagecolor="#505050"
     bordercolor="#ffffff"
     borderopacity="1"
     inkscape:showpageshadow="0"
     inkscape:pageopacity="0"
     inkscape:pagecheckerboard="1"
     inkscape:deskcolor="#505050"
     inkscape:document-units="px"
     inkscape:zoom="27.25"
     inkscape:cx="15.981651"
     inkscape:cy="15.981651"
     inkscape:window-width="2560"
     inkscape:window-height="1377"
     inkscape:window-x="-8"
     inkscape:window-y="-8"
     inkscape:window-maximized="1"
     inkscape:current-layer="layer1" />
  <defs
     id="defs1" />
  <g
     inkscape:label="Слой 1"
     inkscape:groupmode="layer"
     id="layer1">
    <path
       id="rect1"
       style="fill:none;stroke:#000000;stroke-width:1.5;stroke-linecap:round;stroke-opacity:1;stroke-dasharray:none"
       d="M 14.568359 5.46875 C 13.81614 5.46875 13.210938 6.0739524 13.210938 6.8261719 L 13.210938 13.615234 L 6.5683594 13.615234 C 5.8161399 13.615234 5.2109375 14.220437 5.2109375 14.972656 L 5.2109375 17.064453 C 5.2109375 17.816673 5.8161399 18.421875 6.5683594 18.421875 L 13.210938 18.421875 L 13.210938 25.210938 C 13.210938 25.963157 13.81614 26.568359 14.568359 26.568359 L 17.101562 26.568359 C 17.853782 26.568359 18.458984 25.963157 18.458984 25.210938 L 18.458984 18.421875 L 25.027344 18.421875 C 25.779563 18.421875 26.384766 17.816673 26.384766 17.064453 L 26.384766 14.972656 C 26.384766 14.220437 25.779563 13.615234 25.027344 13.615234 L 18.458984 13.615234 L 18.458984 6.8261719 C 18.458984 6.0739524 17.853782 5.46875 17.101562 5.46875 L 14.568359 5.46875 z " />
  </g>
</svg>
